<?xml version="1.0" standalone="no"?>
<!DOCTYPE svg PUBLIC "-//W3C//DTD SVG 20010904//EN"
 "http://www.w3.org/TR/2001/REC-SVG-20010904/DTD/svg10.dtd">
<svg version="1.0" xmlns="http://www.w3.org/2000/svg"
 width="966.000000pt" height="966.000000pt" viewBox="0 0 966.000000 966.000000"
 preserveAspectRatio="xMidYMid meet">
<metadata>
Created by potrace 1.14, written by Peter Selinger 2001-2017
</metadata>
<g transform="translate(0.000000,966.000000) scale(0.100000,-0.100000)"
fill="#000000" stroke="none">
<path d="M7598 9249 c-9 -5 -48 -49 -86 -97 -129 -164 -253 -270 -366 -316
-82 -32 -199 -27 -309 13 -56 20 -96 30 -110 25 -12 -4 -51 -33 -88 -64 -207
-178 -381 -247 -522 -206 -29 9 -82 34 -117 57 -88 56 -114 65 -143 46 -23
-15 -164 -152 -156 -152 2 0 -10 -20 -27 -45 -17 -25 -46 -72 -64 -105 -19
-33 -37 -61 -42 -63 -4 -2 -8 -8 -8 -13 0 -6 -18 -34 -40 -63 -90 -123 -235
-204 -456 -257 l-81 -19 -89 24 c-49 13 -132 36 -183 50 -106 29 -212 34 -274
12 -82 -30 -148 -97 -168 -170 -6 -23 -14 -48 -17 -56 -3 -8 -6 -20 -7 -26 -8
-34 -82 -227 -116 -300 -49 -108 -136 -240 -193 -292 -46 -42 -86 -68 -86 -55
0 4 -5 1 -10 -7 -17 -28 -141 -18 -250 19 -246 85 -344 181 -283 279 27 44 93
99 166 138 75 39 87 57 87 132 0 56 -29 109 -62 116 -13 3 -58 7 -100 11 -181
14 -238 69 -246 240 -5 96 -14 125 -57 168 -49 49 -68 39 -182 -92 -82 -95
-182 -252 -269 -424 -55 -110 -103 -177 -154 -219 -41 -32 -50 -33 -187 -23
-89 6 -106 5 -129 -10 -24 -16 -26 -21 -22 -73 3 -32 16 -84 29 -117 20 -51
32 -65 80 -96 134 -89 185 -185 172 -325 -13 -150 -13 -151 44 -203 82 -74 85
-97 20 -160 -49 -46 -115 -54 -182 -20 -26 13 -52 30 -59 39 -9 12 -31 26 -78
47 -3 2 -21 -23 -39 -54 -63 -113 -112 -179 -177 -241 -135 -130 -274 -165
-451 -116 -64 18 -181 73 -181 86 0 4 -4 7 -8 5 -5 -1 -46 23 -93 53 -111 73
-129 82 -156 75 -51 -12 -40 -96 27 -213 l41 -71 -23 -73 c-30 -98 -32 -213
-3 -234 11 -8 26 -12 35 -8 48 20 189 9 250 -18 14 -7 27 -12 30 -13 19 -4 60
-33 88 -63 26 -28 32 -43 32 -80 0 -93 -76 -190 -253 -321 -105 -77 -120 -101
-106 -174 8 -44 37 -79 91 -110 21 -11 38 -24 38 -29 0 -4 7 -8 16 -8 21 0 80
-35 117 -69 61 -57 70 -105 37 -195 l-21 -54 25 -62 c14 -34 38 -110 52 -169
23 -89 28 -129 28 -246 1 -155 -4 -206 -29 -280 -64 -189 -193 -310 -385 -360
-40 -11 -112 -18 -190 -20 l-124 -3 -8 -28 c-30 -107 148 -409 374 -636 l87
-87 56 2 c124 7 239 -57 347 -193 61 -76 129 -235 145 -337 34 -220 -37 -386
-183 -428 -82 -24 -104 -36 -104 -55 0 -9 -5 -21 -12 -28 -8 -8 -8 -12 -1 -12
6 0 13 -10 17 -22 3 -13 20 -33 38 -44 31 -21 46 -24 218 -39 131 -12 172 -16
245 -26 44 -5 87 -12 95 -15 8 -3 33 -8 55 -10 50 -4 215 -47 315 -81 114 -39
253 -107 344 -167 92 -62 222 -188 242 -236 15 -36 30 -123 39 -222 10 -126
33 -145 142 -118 103 27 234 85 418 188 44 24 93 41 137 48 55 7 99 -12 299
-133 138 -83 231 -116 334 -117 66 -1 77 2 117 29 36 25 52 49 99 145 67 136
124 200 214 241 71 32 173 59 221 59 61 0 334 -113 334 -138 0 -4 13 -13 30
-20 39 -18 127 -119 180 -210 43 -74 75 -106 93 -95 24 14 83 1 202 -47 145
-58 191 -62 211 -20 7 14 20 66 29 115 47 250 160 451 337 600 84 71 303 178
393 192 17 3 35 8 40 13 6 4 46 16 90 25 121 27 182 52 189 78 7 30 -24 258
-45 323 -5 17 -7 47 -4 65 17 106 48 238 62 267 23 47 143 171 173 179 14 3
64 9 111 12 101 8 164 36 253 112 32 27 55 49 52 49 -4 0 0 12 7 28 8 15 18
50 22 77 4 28 12 56 17 63 6 6 7 12 4 12 -4 0 7 20 23 44 38 54 116 125 179
162 68 40 150 104 239 188 66 63 140 119 228 173 56 34 176 93 189 93 20 0 29
36 30 119 1 59 -3 72 -32 116 -49 75 -90 226 -108 397 -7 71 -18 98 -40 98
-15 0 -29 -28 -37 -76 -12 -73 -50 -204 -83 -288 -105 -261 -236 -347 -521
-339 -93 2 -106 5 -145 30 -97 63 -169 138 -206 212 -23 48 -26 68 -28 163 -1
107 -10 138 -40 138 -16 0 -42 37 -50 71 -14 57 -22 116 -19 139 1 14 3 32 4
40 3 30 30 53 60 52 l30 -1 -4 57 c-7 97 45 172 119 172 30 0 33 4 41 60 19
132 64 264 107 310 30 32 47 87 42 135 -12 117 -17 124 -78 119 -57 -6 -92 8
-111 45 -19 38 -22 105 -5 126 17 20 79 47 91 39 5 -3 9 -1 9 4 0 5 12 12 28
15 15 3 40 16 56 28 54 43 24 117 -108 263 -105 117 -126 146 -158 213 -71
150 -15 346 139 484 35 31 109 62 218 90 128 34 159 58 170 133 10 62 4 71
-50 85 -50 13 -105 60 -105 90 0 34 63 102 162 176 59 44 148 79 227 89 25 3
49 10 54 15 4 4 11 44 14 87 4 61 13 93 36 138 27 52 31 69 31 147 1 50 -4 93
-10 99 -10 10 -36 -5 -120 -74 -18 -14 -34 -26 -36 -26 -2 0 -47 -40 -99 -89
l-94 -89 -29 15 c-17 9 -70 17 -127 20 l-98 6 -12 -29 c-14 -33 -16 -156 -4
-227 8 -47 7 -49 -28 -78 -40 -33 -55 -69 -65 -160 -7 -62 -8 -63 -42 -72 -19
-5 -58 -15 -87 -24 -81 -23 -111 -25 -151 -12 -34 11 -53 28 -128 113 l-26 29
-91 -9 c-147 -12 -255 -8 -325 14 -34 11 -64 17 -67 13 -2 -4 -9 -37 -15 -74
-13 -82 -17 -94 -47 -135 -19 -26 -106 -82 -128 -82 -3 0 -11 -3 -19 -6 -28
-11 -90 19 -135 65 -33 32 -55 70 -78 126 -18 44 -33 85 -34 90 -1 6 -10 16
-20 23 -22 16 -25 59 -7 143 9 47 9 63 -1 82 -15 28 -90 84 -118 88 -61 9 -93
-48 -93 -166 0 -69 -2 -75 -20 -75 -31 0 -86 -25 -149 -68 -83 -57 -95 -58
-168 -11 -93 58 -106 62 -239 63 -115 1 -122 2 -157 29 -43 33 -92 130 -112
220 -8 37 -12 109 -11 177 3 145 21 190 109 275 66 63 171 138 194 138 7 0 13
4 13 8 0 4 17 10 38 14 20 5 44 10 52 12 8 2 40 4 70 4 56 0 114 -17 229 -65
86 -37 129 -37 174 -3 20 15 42 27 49 27 7 0 28 9 46 20 19 12 41 20 50 18 10
-1 23 1 30 5 19 13 147 -11 213 -39 l60 -25 26 31 c47 56 74 64 229 65 96 2
149 7 169 16 22 11 45 47 99 152 78 150 150 254 253 362 162 169 208 299 220
621 6 143 5 152 -13 162 -12 6 -26 7 -36 1z m-2853 -2570 c599 -57 1155 -283
1563 -637 443 -383 741 -976 808 -1607 4 -33 8 -63 10 -66 7 -13 18 -218 18
-334 -2 -447 -124 -855 -370 -1230 -101 -155 -173 -243 -319 -391 -298 -300
-661 -523 -1086 -664 -399 -133 -805 -169 -1175 -105 -618 108 -1230 476
-1615 971 -207 266 -346 548 -428 865 -70 273 -84 439 -71 861 9 319 87 629
230 923 62 127 199 350 247 400 11 11 24 28 29 37 15 27 154 178 238 258 239
228 578 445 876 559 47 18 94 37 105 41 24 10 130 43 205 64 69 19 208 45 280
53 30 3 57 7 59 9 7 7 306 1 396 -7z"/>
<path d="M4538 6270 c-2 -6 -44 -13 -93 -16 -50 -4 -95 -10 -101 -15 -6 -5
-28 -11 -48 -12 -21 -2 -41 -8 -44 -13 -4 -6 -18 -11 -32 -12 -14 0 -26 -6
-28 -12 -2 -5 -15 -10 -28 -10 -13 0 -24 -4 -24 -9 0 -5 -13 -12 -30 -16 -16
-4 -30 -11 -30 -16 0 -5 -5 -9 -12 -9 -6 0 -35 -18 -63 -39 -29 -22 -55 -37
-59 -34 -3 4 -6 -2 -6 -12 0 -10 -3 -16 -6 -12 -6 6 -140 -125 -166 -163 -10
-14 -31 -44 -47 -67 -17 -24 -27 -43 -23 -43 4 0 2 -4 -4 -8 -12 -8 -46 -69
-42 -76 2 -2 -6 -14 -17 -26 -11 -12 -18 -24 -16 -26 3 -5 -13 -52 -32 -92 -6
-12 -11 -38 -12 -56 0 -18 -6 -40 -12 -47 -7 -9 -11 -46 -10 -90 0 -41 -3 -80
-7 -87 -4 -7 -4 -12 1 -12 4 0 7 -42 6 -92 0 -51 3 -98 8 -104 5 -6 11 -28 15
-49 3 -21 11 -50 16 -64 6 -14 12 -30 12 -36 1 -5 7 -20 14 -32 7 -13 9 -23 5
-23 -4 0 -3 -4 3 -8 5 -4 18 -29 28 -57 10 -27 25 -55 33 -61 7 -7 13 -16 11
-20 -1 -5 6 -23 15 -41 9 -18 17 -39 17 -47 0 -8 5 -16 11 -18 5 -2 11 -10 13
-18 1 -8 19 -51 40 -95 39 -83 43 -93 72 -162 10 -24 21 -43 26 -43 4 0 8 -7
8 -15 0 -9 7 -27 16 -40 9 -14 13 -25 9 -25 -5 0 0 -9 10 -20 10 -11 15 -23
12 -26 -3 -4 0 -13 8 -21 8 -8 15 -23 15 -34 0 -10 5 -19 10 -19 6 0 10 -6 10
-12 0 -16 53 -122 63 -126 4 -2 7 -10 7 -17 0 -7 11 -36 25 -63 14 -28 25 -56
25 -63 0 -7 6 -20 14 -28 7 -9 21 -37 31 -63 10 -27 22 -48 26 -48 5 0 8 -3 8
-7 -1 -5 0 -11 1 -15 1 -5 3 -11 4 -15 1 -5 13 -31 28 -60 14 -28 24 -53 22
-56 -2 -2 2 -10 11 -17 8 -7 15 -21 15 -31 0 -11 5 -19 10 -19 6 0 10 -6 10
-14 0 -8 9 -31 20 -53 33 -66 64 -138 62 -145 -1 -5 2 -8 7 -8 5 0 13 -10 16
-22 25 -85 95 -190 130 -194 5 -1 12 -3 15 -4 13 -7 90 -5 90 2 0 4 5 8 10 8
18 0 70 60 70 80 0 10 5 22 10 25 6 3 10 13 10 21 0 9 7 22 16 31 8 9 13 22
10 29 -3 8 -2 14 3 14 8 0 43 76 43 90 0 3 6 9 14 13 8 4 14 18 14 31 0 13 7
29 15 36 8 7 12 17 8 23 -3 5 2 16 12 23 10 8 16 17 12 20 -4 4 6 32 22 63 46
90 81 170 81 186 0 8 5 15 10 15 6 0 10 4 10 10 0 5 13 37 29 69 16 33 27 62
25 64 -3 2 2 10 11 17 8 7 15 16 15 20 0 4 8 25 17 46 9 22 17 41 18 44 1 3
15 32 30 65 16 33 28 63 27 67 -1 3 5 12 13 18 8 7 15 19 15 27 0 7 13 40 29
71 16 31 36 75 46 97 9 22 23 53 31 68 8 16 12 33 8 38 -3 5 -1 9 4 9 10 0 38
60 34 73 -1 4 2 7 8 7 5 0 10 5 10 11 0 6 11 33 25 61 14 27 25 56 25 64 0 8
5 14 11 14 6 0 9 6 6 13 -2 6 4 23 14 36 11 13 19 29 19 36 0 6 11 34 25 61
14 27 25 55 25 62 0 7 6 15 14 18 8 3 12 16 10 35 -2 16 1 29 7 29 5 0 9 6 8
13 -1 6 0 19 4 27 24 63 34 324 16 425 -7 39 -16 72 -19 75 -4 3 -12 26 -18
51 -7 26 -22 69 -34 95 -12 27 -22 51 -23 54 -5 22 -53 97 -120 189 -21 29
-152 157 -180 176 -16 11 -37 28 -47 38 -10 9 -25 17 -33 17 -8 0 -15 5 -15
10 0 6 -7 10 -16 10 -8 0 -22 7 -31 15 -8 8 -19 13 -24 10 -5 -4 -9 1 -9 9 0
11 -9 16 -29 16 -16 0 -34 6 -40 14 -7 8 -21 13 -31 11 -10 -2 -24 3 -30 10
-7 8 -25 13 -41 11 -16 -2 -29 0 -29 5 0 11 -143 32 -208 30 -13 -1 -32 4 -42
9 -12 7 -20 6 -22 0z m127 -564 c36 -4 101 -32 110 -46 4 -6 10 -8 14 -6 8 6
121 -96 121 -108 0 -5 9 -19 20 -33 11 -14 17 -29 14 -34 -3 -5 -1 -9 4 -9 13
0 46 -135 45 -179 -3 -74 -44 -198 -83 -245 -50 -62 -166 -146 -201 -146 -10
0 -21 -5 -24 -10 -8 -13 -234 -8 -260 7 -11 6 -33 17 -50 24 -32 15 -108 69
-113 82 -2 4 -9 13 -15 20 -28 30 -55 75 -67 112 -7 22 -17 48 -22 58 -15 31
-11 188 7 230 9 21 13 42 10 47 -4 6 -1 10 5 10 6 0 15 11 20 25 5 14 14 25
20 25 5 0 10 6 10 13 0 15 65 87 79 87 6 0 11 5 11 10 0 6 9 10 20 10 11 0 20
4 20 9 0 14 92 47 140 50 25 2 47 5 50 8 3 3 23 2 45 -1 22 -4 54 -8 70 -10z"/>
<path d="M4013 3477 c-2 -4 -9 -5 -14 -2 -5 4 -9 2 -9 -4 0 -5 -8 -10 -17 -10
-19 1 -138 -27 -163 -38 -8 -3 -24 -8 -35 -10 -39 -9 -74 -21 -130 -48 -16 -7
-33 -11 -37 -9 -4 3 -8 1 -8 -5 0 -5 -13 -12 -30 -16 -16 -4 -30 -11 -30 -16
0 -5 -8 -9 -19 -9 -10 0 -24 -7 -31 -15 -7 -8 -16 -12 -21 -10 -4 3 -11 0 -16
-7 -4 -7 -20 -19 -34 -26 -15 -8 -38 -25 -52 -38 -14 -13 -29 -24 -32 -24 -14
0 -128 -130 -133 -151 -2 -8 -8 -15 -13 -17 -5 -2 -9 -12 -9 -23 0 -10 -4 -19
-10 -19 -5 0 -10 -12 -10 -28 0 -15 -6 -36 -13 -47 -17 -25 -15 -138 2 -159 7
-8 10 -19 7 -24 -3 -5 3 -21 14 -34 11 -14 16 -29 12 -32 -4 -4 1 -12 11 -17
9 -6 17 -17 17 -25 0 -22 135 -154 198 -193 28 -18 52 -38 52 -44 0 -6 3 -7 7
-4 3 4 17 0 31 -9 13 -8 26 -13 29 -10 3 3 11 -1 17 -10 6 -8 18 -16 26 -18 8
-1 25 -8 38 -14 12 -7 22 -10 22 -7 0 3 12 -3 27 -12 15 -10 30 -17 33 -17 7
2 32 -6 52 -17 10 -5 28 -9 41 -9 13 0 27 -3 31 -7 3 -4 17 -8 29 -10 12 -2
35 -8 51 -15 16 -6 41 -12 55 -13 14 -1 35 -6 46 -11 11 -6 36 -10 55 -9 19 1
40 -3 47 -8 7 -5 17 -6 22 -3 5 4 13 2 16 -4 4 -6 23 -10 43 -10 45 1 131 -6
186 -16 56 -10 364 -11 400 -2 16 4 56 9 88 10 32 1 58 5 58 9 0 3 19 5 43 3
23 -2 54 3 69 11 17 8 30 10 34 4 3 -5 10 -6 16 -3 6 4 21 8 32 10 27 4 61 12
61 14 0 1 16 4 35 6 19 3 47 9 61 15 14 5 35 11 47 12 12 1 22 5 22 10 0 5 6
7 14 4 8 -3 17 -3 21 1 4 4 10 7 13 8 4 0 20 6 35 12 16 7 34 12 40 12 7 0 20
7 30 15 11 7 25 11 31 9 7 -3 19 2 26 11 7 8 23 15 35 15 13 0 26 7 29 16 3 8
11 12 17 9 5 -4 17 1 24 11 8 11 15 15 15 11 0 -5 19 6 42 25 23 18 42 31 43
28 1 -6 94 68 115 92 43 47 102 128 95 128 -4 0 3 13 14 29 11 15 18 31 15 33
-2 3 2 25 9 49 20 61 20 114 2 149 -8 16 -14 33 -14 37 3 10 -31 86 -40 93 -4
3 -18 21 -31 40 -13 19 -43 54 -67 77 -51 49 -204 153 -225 153 -9 0 -21 7
-28 15 -7 8 -16 12 -21 9 -5 -3 -12 1 -15 9 -3 8 -17 15 -32 15 -14 0 -28 5
-30 11 -2 6 -10 11 -17 11 -8 0 -26 5 -42 12 -15 6 -39 13 -53 15 -13 2 -30 9
-36 14 -7 5 -16 9 -20 8 -5 -1 -11 0 -14 1 -3 1 -12 3 -20 5 -8 2 -35 9 -60
16 -25 6 -53 11 -62 11 -10 0 -18 6 -18 14 0 16 -16 19 -25 4 -4 -6 -11 -8
-16 -5 -36 23 -49 14 -84 -56 -18 -38 -32 -69 -29 -69 6 0 -28 -53 -40 -62 -6
-4 1 -15 15 -27 25 -21 24 -23 -13 -25 -16 -1 -25 -10 -32 -33 -5 -18 -13 -33
-17 -33 -5 0 -9 -8 -9 -18 0 -10 -6 -27 -14 -38 -8 -11 -14 -29 -12 -39 3 -19
8 -20 96 -29 25 -3 47 -6 50 -7 3 -1 10 -2 15 -3 15 -3 96 -25 135 -37 50 -15
111 -45 140 -68 25 -20 25 -20 5 -38 -27 -25 -113 -66 -149 -71 -16 -2 -38 -9
-50 -16 -12 -7 -36 -12 -53 -11 -18 1 -33 -2 -33 -5 0 -8 -5 -9 -105 -18 -44
-4 -86 -11 -93 -15 -20 -13 -502 -12 -542 1 -19 6 -62 12 -95 14 -33 1 -66 6
-73 12 -8 5 -34 11 -59 12 -25 1 -49 6 -52 11 -3 4 -19 10 -36 11 -16 2 -37
10 -46 18 -9 8 -19 11 -22 7 -4 -3 -15 0 -24 8 -10 8 -30 21 -45 28 -42 21
-42 38 0 64 46 29 122 59 122 49 0 -4 4 -2 8 4 4 7 25 15 47 18 22 4 54 11 70
16 17 6 50 11 73 13 23 1 42 5 42 9 0 3 8 5 18 3 9 -1 22 2 29 7 7 5 17 7 23
3 16 -10 1 44 -19 67 -9 10 -17 23 -17 28 -1 6 -3 12 -4 15 -3 6 -4 10 -14 40
-4 12 -16 22 -28 22 -30 3 -35 13 -15 28 12 8 14 15 7 20 -5 3 -8 10 -5 15 3
5 1 11 -5 15 -5 3 -19 27 -30 53 -53 120 -53 119 -88 118 -19 -1 -36 -4 -39
-9z m-200 -321 c4 -9 -6 -20 -26 -30 -139 -71 -182 -140 -166 -270 5 -43 132
-166 172 -166 7 0 18 -5 23 -10 6 -6 19 -12 30 -15 18 -4 93 -29 124 -42 8 -3
30 -7 49 -9 19 -2 37 -7 40 -11 3 -5 26 -9 51 -11 25 -1 52 -5 60 -8 8 -4 33
-8 55 -10 167 -13 225 -16 335 -18 69 -2 135 1 148 5 14 6 22 5 22 -2 0 -8 4
-8 13 -2 6 5 41 10 77 11 36 1 92 6 125 12 33 5 74 12 90 14 17 2 31 5 33 6 1
2 5 3 10 5 4 1 15 5 25 9 9 5 23 6 30 3 7 -3 24 1 38 9 13 7 34 13 46 14 12 0
28 6 35 13 7 7 23 12 35 11 12 -1 24 5 27 12 3 8 15 14 26 14 11 0 20 3 20 8
0 4 12 13 28 19 29 13 99 73 85 73 -4 0 -1 6 7 13 9 7 21 26 28 42 13 33 14
113 0 121 -4 3 -6 10 -3 15 4 5 1 9 -5 9 -6 0 -9 4 -6 9 5 8 -98 111 -112 111
-4 0 -22 9 -41 21 -24 15 -31 23 -22 29 14 8 55 -3 114 -31 22 -11 45 -19 52
-19 7 0 15 -3 17 -7 2 -5 25 -19 51 -33 26 -14 60 -35 75 -48 71 -60 102 -93
102 -106 0 -8 4 -16 10 -18 17 -6 18 -94 2 -129 -15 -29 -112 -138 -112 -124
0 3 -10 -3 -22 -15 -21 -19 -33 -24 -51 -21 -5 1 -6 -3 -3 -8 4 -5 -4 -13 -16
-16 -13 -4 -31 -14 -40 -23 -10 -8 -18 -12 -18 -7 0 4 -10 0 -23 -8 -13 -8
-43 -21 -68 -28 -24 -7 -51 -18 -59 -24 -8 -6 -22 -11 -30 -10 -8 1 -24 -3
-35 -8 -11 -6 -29 -11 -40 -13 -11 -1 -49 -9 -85 -18 -113 -26 -173 -36 -240
-42 -152 -13 -176 -16 -186 -25 -6 -5 -14 -5 -18 -1 -10 9 -136 9 -130 0 3 -5
0 -8 -5 -8 -6 0 -11 3 -11 8 0 4 -50 8 -112 9 -61 1 -114 6 -117 10 -3 4 -31
8 -61 9 -49 1 -108 7 -165 19 -11 2 -38 7 -60 10 -22 4 -44 10 -50 13 -5 3
-18 7 -30 9 -36 5 -50 8 -61 15 -6 4 -23 9 -39 12 -34 6 -128 41 -167 62 -15
8 -30 15 -33 14 -17 -2 -131 70 -188 120 -44 38 -76 100 -78 151 -2 46 10 75
49 118 12 14 22 29 22 33 0 5 5 8 10 8 6 0 18 8 29 18 50 47 175 113 291 155
8 3 16 6 16 6 1 1 4 -5 7 -13z"/>
<path d="M8729 5191 c-36 -18 -72 -50 -76 -67 -7 -29 -59 -143 -76 -168 -24
-35 -25 -76 -3 -143 9 -26 16 -52 15 -57 0 -5 3 -12 8 -15 4 -3 19 -23 33 -43
28 -42 63 -56 86 -33 9 8 13 15 10 15 -3 0 -1 11 4 24 5 13 12 44 15 67 3 24
8 55 10 69 2 14 6 43 10 65 3 22 12 65 21 95 21 75 20 72 32 103 21 50 14 75
-25 96 -26 13 -20 14 -64 -8z"/>
</g>
</svg>
