<?xml version="1.0" standalone="no"?>
<!DOCTYPE svg PUBLIC "-//W3C//DTD SVG 20010904//EN"
 "http://www.w3.org/TR/2001/REC-SVG-20010904/DTD/svg10.dtd">
<svg version="1.0" xmlns="http://www.w3.org/2000/svg"
 width="112.000000pt" height="112.000000pt" viewBox="0 0 112.000000 112.000000"
 preserveAspectRatio="xMidYMid meet">
<metadata>
Created by potrace 1.14, written by Peter Selinger 2001-2017
</metadata>
<g transform="translate(0.000000,112.000000) scale(0.100000,-0.100000)"
fill="#000000" stroke="none">
<path d="M852 1043 c-16 -18 -30 -23 -46 -19 -12 3 -32 -1 -44 -10 -12 -8 -38
-14 -58 -12 -25 2 -39 -3 -46 -15 -24 -45 -51 -59 -99 -53 -50 7 -61 0 -74
-44 -17 -56 -58 -76 -90 -43 -16 15 -16 18 -1 28 22 17 20 28 -6 40 -13 6 -23
15 -23 22 0 21 -14 26 -30 10 -8 -9 -15 -19 -15 -24 -1 -16 -38 -53 -54 -53
-9 0 -16 -7 -16 -15 0 -8 4 -15 10 -15 11 0 32 -69 24 -81 -2 -5 -11 -6 -18
-3 -8 3 -25 -6 -40 -21 -25 -25 -27 -25 -62 -10 -20 8 -38 15 -39 15 -1 0 -2
-15 0 -32 2 -25 8 -34 25 -38 33 -8 34 -22 6 -49 -25 -23 -25 -24 -6 -40 13
-11 22 -35 26 -72 6 -49 4 -59 -15 -78 -11 -11 -30 -21 -41 -21 -11 0 -20 -5
-20 -11 0 -24 35 -69 61 -78 30 -10 59 -57 51 -81 -2 -8 -11 -21 -20 -27 -21
-17 -16 -20 43 -28 80 -10 133 -47 126 -88 -2 -11 47 -9 54 3 9 14 42 12 75
-5 28 -15 30 -14 60 15 17 16 35 30 40 30 16 0 60 -23 60 -31 0 -5 13 -15 29
-24 l29 -15 24 48 c19 39 31 50 66 62 39 13 42 17 42 51 0 40 21 69 49 69 10
0 23 11 29 25 7 14 32 40 58 58 39 27 45 36 39 57 -3 14 -6 31 -7 38 -2 23
-15 12 -22 -18 -4 -20 -14 -34 -31 -40 -35 -13 -61 1 -75 43 -9 30 -7 41 16
86 25 50 25 53 7 66 -17 13 -17 14 0 20 16 7 16 9 -4 41 -25 41 -19 68 21 84
25 10 28 15 18 27 -10 12 -9 18 7 29 10 8 22 14 26 14 8 0 20 42 14 48 -3 3
-12 -1 -21 -9 -9 -8 -24 -14 -33 -14 -9 0 -16 -4 -16 -10 -3 -43 -36 -70 -59
-48 -13 14 -51 8 -64 -9 -17 -23 -39 -13 -47 23 -4 16 -13 29 -21 29 -9 0 -13
-4 -9 -9 8 -14 -28 -31 -45 -21 -8 5 -18 6 -23 3 -26 -16 -37 66 -12 87 8 7
45 13 82 15 108 4 110 4 116 23 4 9 15 28 27 42 21 27 38 91 24 89 -5 -1 -19
-12 -32 -26z m-197 -298 c103 -45 158 -125 170 -245 17 -163 -105 -296 -280
-308 -59 -3 -79 0 -125 20 -63 28 -121 83 -153 142 -27 51 -31 195 -7 242 28
55 71 103 122 134 86 53 177 58 273 15z"/>
<path d="M483 715 c-37 -16 -73 -68 -73 -106 0 -14 14 -57 32 -95 17 -38 33
-71 33 -74 13 -40 43 -90 55 -90 16 0 120 220 120 253 0 31 -28 85 -52 101
-34 22 -79 27 -115 11z m81 -71 c21 -21 20 -40 -3 -63 -24 -24 -59 -17 -73 14
-22 49 38 88 76 49z"/>
<path d="M413 385 c-83 -36 -54 -107 52 -131 38 -9 114 -5 155 7 94 28 98 104
8 131 -33 10 -41 9 -49 -3 -15 -23 -10 -39 12 -39 12 0 19 -5 17 -12 -5 -15
-85 -23 -135 -13 -35 6 -37 25 -2 25 20 0 23 8 13 34 -7 19 -29 20 -71 1z m10
-45 c-7 -27 35 -42 109 -41 77 1 111 15 103 41 -8 26 11 26 25 0 35 -65 -208
-87 -261 -23 -11 13 -10 17 6 29 24 18 24 18 18 -6z"/>
<path d="M1001 582 c-6 -11 -6 -24 -1 -32 9 -15 9 -16 25 35 6 21 -12 19 -24
-3z"/>
</g>
</svg>
